<?xml version="1.0" encoding="iso-8859-1"?>
<!-- Uploaded to: SVG Repo, www.svgrepo.com, Generator: SVG Repo Mixer Tools -->
<svg fill="#000000" height="800px" width="800px" version="1.1" id="Layer_1" xmlns="http://www.w3.org/2000/svg" xmlns:xlink="http://www.w3.org/1999/xlink" 
	 viewBox="0 0 510.512 510.512" xml:space="preserve">
<g>
	<g>
		<g>
			<path d="M372.595,372.597c-8.341,8.341-8.341,21.845,0,30.165c8.32,8.341,21.824,8.341,30.165,0
				c8.341-8.32,8.341-21.824,0-30.165C394.419,364.256,380.915,364.256,372.595,372.597z"/>
			<path d="M357.506,236.834c-33.334-33.334-87.353-33.334-120.687,0c-33.31,33.339-33.31,87.348-0.006,120.681
				c33.345,33.317,87.355,33.317,120.687,0.013C390.84,324.187,390.84,270.168,357.506,236.834z M327.336,327.351
				c-16.667,16.652-43.681,16.652-60.354-0.006c-16.646-16.66-16.646-43.674,0.013-60.347c16.665-16.665,43.669-16.665,60.341,0.006
				C344.008,283.675,344.008,310.68,327.336,327.351z"/>
			<path d="M402.756,221.743c8.341-8.32,8.341-21.824,0-30.165c-8.32-8.341-21.824-8.341-30.165,0
				c-8.341,8.341-8.341,21.845,0,30.165C380.932,230.084,394.436,230.084,402.756,221.743z"/>
			<path d="M191.571,372.597c-8.341,8.341-8.341,21.845,0,30.165c8.341,8.341,21.845,8.341,30.165,0
				c8.341-8.32,8.341-21.824,0-30.165C213.417,364.256,199.913,364.256,191.571,372.597z"/>
			<path d="M448.015,146.323c-27.951-27.951-62.433-47.011-99.77-56.124c1.357-6.764-0.58-14.057-5.823-19.3l-35.691-35.691
				c-46.945-46.945-123.044-46.945-169.989,0L35.215,136.757c-46.943,46.943-46.943,123.042,0.002,169.987l35.665,35.686
				c5.245,5.248,12.543,7.186,19.31,5.827c9.113,37.336,28.172,71.817,56.123,99.767c83.318,83.318,218.383,83.318,301.701,0
				S531.333,229.641,448.015,146.323z M65.391,276.578c-30.287-30.287-30.287-79.371-0.005-109.653L166.914,65.377
				c30.281-30.281,79.365-30.281,109.647,0.002l20.606,20.606l-4.282,4.282c-0.11,0.105-0.223,0.206-0.33,0.313L90.571,292.563
				c-0.107,0.107-0.208,0.22-0.312,0.329l-4.283,4.283L65.391,276.578z M417.845,417.854c-66.655,66.656-174.705,66.656-241.361,0
				c-27.815-27.815-44.609-63.67-48.77-102.077l188.054-188.054c38.408,4.162,74.263,20.956,102.077,48.77
				C484.501,243.148,484.501,351.198,417.845,417.854z"/>
		</g>
	</g>
</g>
</svg>