<?xml version="1.0" encoding="iso-8859-1"?>
<!-- Uploaded to: SVG Repo, www.svgrepo.com, Generator: SVG Repo Mixer Tools -->
<!DOCTYPE svg PUBLIC "-//W3C//DTD SVG 1.1//EN" "http://www.w3.org/Graphics/SVG/1.1/DTD/svg11.dtd">
<svg fill="#000000" version="1.1" id="Capa_1" xmlns="http://www.w3.org/2000/svg" xmlns:xlink="http://www.w3.org/1999/xlink" 
	 width="800px" height="800px" viewBox="0 0 70.074 70.074"
	 xml:space="preserve">
<g>
	<path d="M63.021,16.657C61.744,7.18,56.516,0.272,50.078,0.272H20.001c-6.442,0-11.666,6.907-12.947,16.385
		C2.411,19.005,0,23.88,0,29.528c0,4.342,1.424,8.227,4.188,10.859v8.957h11.146v-5.446h4.66v1.703h11.697v21.972h-5.659v2.229
		h18.005v-2.224h-5.657V45.611h11.697v-1.709h4.658v5.445h11.147v-8.96c2.768-2.635,4.19-6.52,4.19-10.859
		C70.079,23.878,67.67,19.005,63.021,16.657z M12.111,34.198c-2.577,0-4.669-2.088-4.669-4.671c0-2.579,2.093-4.672,4.669-4.672
		c2.579,0,4.671,2.091,4.671,4.672C16.783,32.109,14.69,34.198,12.111,34.198z M13.776,15.159c-1.101,0-2.133,0.098-3.107,0.28
		c1.381-6.799,5.09-11.822,9.332-11.822h30.077c4.236,0,7.945,5.023,9.33,11.824c-0.689-0.13-1.424-0.201-2.184-0.241
		c0-0.014,0.005-0.027,0.005-0.041c0-3.946-3.207-7.156-7.151-7.156c-3.946,0-7.153,3.209-7.153,7.156H13.776z M48.604,33.366
		H21.477c-0.616,0-1.116-0.498-1.116-1.116c0-0.617,0.498-1.115,1.116-1.115h27.124c0.615,0,1.117,0.498,1.117,1.115
		C49.718,32.868,49.216,33.366,48.604,33.366z M48.604,29.279H21.477c-0.616,0-1.116-0.499-1.116-1.117
		c0-0.617,0.498-1.114,1.116-1.114h27.124c0.615,0,1.117,0.497,1.117,1.114C49.718,28.778,49.216,29.279,48.604,29.279z
		 M45.16,15.159c0-2.717,2.208-4.927,4.923-4.927s4.92,2.21,4.92,4.927H45.16z M57.971,34.198c-2.58,0-4.672-2.088-4.672-4.671
		c0-2.579,2.092-4.672,4.672-4.672c2.578,0,4.667,2.091,4.667,4.672C62.638,32.109,60.549,34.198,57.971,34.198z"/>
</g>
</svg>