<?xml version="1.0" encoding="iso-8859-1"?>
<!-- Uploaded to: SVG Repo, www.svgrepo.com, Generator: SVG Repo Mixer Tools -->
<!DOCTYPE svg PUBLIC "-//W3C//DTD SVG 1.1//EN" "http://www.w3.org/Graphics/SVG/1.1/DTD/svg11.dtd">
<svg fill="#000000" version="1.1" id="Capa_1" xmlns="http://www.w3.org/2000/svg" xmlns:xlink="http://www.w3.org/1999/xlink" 
	 width="800px" height="800px" viewBox="0 0 30.82 30.82" xml:space="preserve"
	>
<g>
	<g>
		<path d="M15.41,11.327c-3.552,0-6.43,2.878-6.43,6.431c0,3.551,2.878,6.43,6.43,6.43s6.43-2.879,6.43-6.43
			C21.84,14.205,18.962,11.327,15.41,11.327z M15.41,21.186c-1.893,0-3.43-1.537-3.43-3.43s1.537-3.43,3.43-3.43
			c1.893,0,3.43,1.537,3.43,3.43S17.303,21.186,15.41,21.186z"/>
		<path d="M25.335,13.512l-1.286-2.227l-3.027,0.861l0.861-3.028l-2.227-1.285l-2.246,2.316L16.696,7.04h-2.572l-0.731,3.186
			l-2.227-2.393L8.938,9.119l0.959,3.125l-3.125-0.959l-1.286,2.227L7.88,15.74l-3.186,0.73l-0.001,2.572l3.188,0.73l-2.394,2.229
			l1.286,2.227l3.125-0.959l-0.959,3.125l2.227,1.287l2.172-2.336l0.786,3.129h2.572l0.769-3.057l2.19,2.264l2.228-1.287
			l-0.861-3.027l3.027,0.861l1.285-2.227l-2.261-2.191l3.054-0.77v-2.57l-3.054-0.768L25.335,13.512z M15.41,25.043
			c-4.025,0-7.287-3.262-7.287-7.285c0-4.025,3.262-7.288,7.287-7.288c4.025,0,7.287,3.263,7.287,7.288
			C22.697,21.781,19.436,25.043,15.41,25.043z"/>
		<path d="M1.839,10.416C0.718,12.48,0.068,14.833,0,17.328h3.821c0.066-1.801,0.535-3.497,1.333-4.999L1.839,10.416z"/>
		<path d="M14.981,6.17V2.347c-2.494,0.068-4.846,0.719-6.911,1.839l1.915,3.315C11.486,6.704,13.182,6.235,14.981,6.17z"/>
		<path d="M22.752,4.186c-2.064-1.122-4.418-1.771-6.913-1.84v3.823c1.799,0.065,3.497,0.534,4.999,1.332L22.752,4.186z"/>
		<path d="M9.246,7.936L7.338,4.629C5.284,5.897,3.553,7.628,2.284,9.682l3.306,1.909C6.52,10.115,7.77,8.866,9.246,7.936z"/>
		<path d="M25.23,11.593l3.307-1.908C27.27,7.631,25.538,5.9,23.484,4.631l-1.909,3.307C23.053,8.867,24.303,10.117,25.23,11.593z"
			/>
		<path d="M28.98,10.417l-3.313,1.914c0.798,1.501,1.267,3.198,1.332,4.999h3.821C30.752,14.835,30.102,12.482,28.98,10.417z"/>
	</g>
</g>
</svg>